<svg width="32" height="32" viewBox="0 0 32 32" fill="none" xmlns="http://www.w3.org/2000/svg">
<path d="M4.26667 0C3.13507 0 2.04983 0.421427 1.24968 1.17158C0.449523 1.92171 0 2.93913 0 4V28C0 29.0609 0.449523 30.0783 1.24968 30.8285C2.04983 31.5785 3.13507 32 4.26667 32H27.7333C28.865 32 29.9502 31.5785 30.7504 30.8285C31.5504 30.0783 32 29.0609 32 28V4C32 2.93913 31.5504 1.92171 30.7504 1.17158C29.9502 0.421427 28.865 0 27.7333 0L4.26667 0ZM14.9333 4H17.0667C17.6324 4 18.175 4.21071 18.5751 4.58578C18.9752 4.96086 19.2 5.46957 19.2 6V12C19.2 12.5304 18.9752 13.0391 18.5751 13.4142C18.175 13.7893 17.6324 14 17.0667 14H14.9333C14.3676 14 13.825 13.7893 13.4249 13.4142C13.0248 13.0391 12.8 12.5304 12.8 12V6C12.8 5.46957 13.0248 4.96086 13.4249 4.58578C13.825 4.21071 14.3676 4 14.9333 4ZM4.26667 6C4.26667 5.46957 4.49142 4.96086 4.8915 4.58578C5.29158 4.21071 5.8342 4 6.4 4H8.53333C9.09913 4 9.64175 4.21071 10.0418 4.58578C10.4419 4.96086 10.6667 5.46957 10.6667 6V20C10.6667 20.5304 10.4419 21.0391 10.0418 21.4142C9.64175 21.7893 9.09913 22 8.53333 22H6.4C5.8342 22 5.29158 21.7893 4.8915 21.4142C4.49142 21.0391 4.26667 20.5304 4.26667 20V6ZM23.4667 4H25.6C26.1658 4 26.7084 4.21071 27.1085 4.58578C27.5085 4.96086 27.7333 5.46957 27.7333 6V26C27.7333 26.5304 27.5085 27.0391 27.1085 27.4142C26.7084 27.7893 26.1658 28 25.6 28H23.4667C22.9009 28 22.3583 27.7893 21.9582 27.4142C21.5581 27.0391 21.3333 26.5304 21.3333 26V6C21.3333 5.46957 21.5581 4.96086 21.9582 4.58578C22.3583 4.21071 22.9009 4 23.4667 4Z" fill="#00A6FB"/>
</svg>
